# xmcd
#
# Track frame offsets: 
#        150
#        13768
#        26135
#        40500
#        53533
#        67155
#        84440
#        95295
#        107310
#        119030
#        130375
#        143153
#        159090
#        173393
#        187145
#        198088
#        209705
#        220770
#        234575
#        244495
#        254655
#        267925
#        279070
#        288508
#
# Disc length: 4092 seconds
#
# Revision: 10
# Processed by: cddbd v1.5.2PL0 Copyright (c) Steve Scherf et al.
# Submitted via: ExactAudioCopy v1.0b1
#
DISCID=5b0ffa18
DTITLE=Various Artist - Country U.S.A. Vol. 4 1970
DYEAR=1988
DGENRE=Country
TTITLE0=Loretta Lynn - Coal Miner's Daughter
TTITLE1=Jerry Lee Lewis - There Must Be More To Love Than This
TTITLE2=Conway Twitty - Fifteen Years Ago
TTITLE3=Merle Haggard - The Fightin' Side Of Me
TTITLE4=Johnny Cash And June Carter - If I Were A Carpenter
TTITLE5=Ray Price - For The Good Times
TTITLE6=Waylon Jennings - The Taker
TTITLE7=Tammy Wynette - He Loves Me All The Way
TTITLE8=Charley Pride - Wonder Could I Live There Anymore
TTITLE9=Bobby Bare - How I Got To Memphis
TTITLE10=Lynn Anderson - Rose Garden
TTITLE11=Marty Robbins - My Woman My Woman My Wife
TTITLE12=Dolly Parton - Mule Skinner Blues
TTITLE13=George Jones - A Good Year For The Roses
TTITLE14=Jerry Lee Lewis - Once More With Feeling
TTITLE15=Loretta Lynn - I Know How
TTITLE16=Conway Twitty - Hello Darlin'
TTITLE17=Tom T. Hall - A Week In A Country Jail
TTITLE18=Anne Murray - Snowbird
TTITLE19=Charley Pride - Is Anybody Goin' To San Antone
TTITLE20=Sonny James - Endlessly
TTITLE21=Tammy Wynette - Run Woman Run
TTITLE22=Waylon Jennings - Brown-Eyed Handsome Man
TTITLE23=Johnny Cash - Sunday Morning Coming Down
EXTD=YEAR: 1970
EXTT0=
EXTT1=
EXTT2=
EXTT3=
EXTT4=
EXTT5=
EXTT6=
EXTT7=
EXTT8=
EXTT9=
EXTT10=
EXTT11=
EXTT12=
EXTT13=
EXTT14=
EXTT15=
EXTT16=
EXTT17=
EXTT18=
EXTT19=
EXTT20=
EXTT21=
EXTT22=
EXTT23=
PLAYORDER=
